<svg width="18" height="18" viewBox="0 0 18 18" fill="none" xmlns="http://www.w3.org/2000/svg">
<path d="M8.99963 7.90411C7.79222 7.90411 6.81445 8.89123 6.81445 10.1091C6.81445 11.3269 7.79225 12.314 8.99963 12.314C10.207 12.314 11.1848 11.3269 11.1848 10.1091C11.1848 8.89123 10.207 7.90411 8.99963 7.90411Z" fill="black"/>
<path d="M16.8316 4.77248H14.7706C14.3108 4.77248 13.8939 4.50002 13.7055 4.07706L13.0886 2.69496C12.9002 2.27252 12.4827 2.00006 12.0229 2.00006H5.97713C5.51735 2.00006 5.09987 2.27252 4.91091 2.69496L4.29458 4.07706C4.10614 4.50002 3.68923 4.77248 3.22942 4.77248H1.16838C0.522949 4.77248 0 5.30039 0 5.95078V14.8217C0 15.4721 0.522949 16 1.16838 16H9.7553H16.8316C17.4765 16 18 15.4721 18 14.8217V5.95078C18 5.30039 17.4765 4.77248 16.8316 4.77248ZM9 14.1977C6.76097 14.1977 4.94659 12.3673 4.94659 10.1091C4.94659 7.85087 6.761 6.01997 9 6.01997C11.239 6.01997 13.0534 7.85083 13.0534 10.1091C13.0534 12.3674 11.239 14.1977 9 14.1977Z" fill="black"/>
</svg>
