<svg width="20" height="20" viewBox="0 0 20 20" fill="none" xmlns="http://www.w3.org/2000/svg">
<path d="M7.62796 4.50694C8.68349 2.6134 9.21124 1.66663 10.0003 1.66663C10.7894 1.66663 11.3172 2.61339 12.3727 4.50693L12.6457 4.99682C12.9457 5.5349 13.0957 5.80395 13.3296 5.98147C13.5634 6.15898 13.8546 6.22488 14.4371 6.35667L14.9674 6.47665C17.0171 6.94043 18.042 7.17231 18.2858 7.9564C18.5297 8.74046 17.831 9.55754 16.4336 11.1915L16.0721 11.6143C15.675 12.0786 15.4764 12.3108 15.3871 12.598C15.2978 12.8853 15.3278 13.195 15.3878 13.8146L15.4425 14.3786C15.6537 16.5588 15.7594 17.6489 15.1211 18.1335C14.4827 18.618 13.5231 18.1762 11.6039 17.2926L11.1074 17.064C10.5621 16.8129 10.2894 16.6873 10.0003 16.6873C9.71124 16.6873 9.43858 16.8129 8.89324 17.064L8.39674 17.2926C6.47756 18.1762 5.51798 18.618 4.87962 18.1335C4.24126 17.6489 4.34689 16.5588 4.55816 14.3786L4.61281 13.8146C4.67285 13.195 4.70287 12.8853 4.61354 12.598C4.52423 12.3108 4.32569 12.0786 3.92859 11.6143L3.56708 11.1915C2.1697 9.55754 1.47101 8.74046 1.71484 7.9564C1.95868 7.17231 2.98354 6.94043 5.03328 6.47665L5.56357 6.35667C6.14604 6.22488 6.43727 6.15898 6.67111 5.98147C6.90495 5.80395 7.05494 5.53491 7.35489 4.99682L7.62796 4.50694Z" fill="#4397AA"/>
</svg>
