<svg width="40" height="40" viewBox="0 0 40 40" fill="none" xmlns="http://www.w3.org/2000/svg">
<path d="M15.2559 9.01389C17.367 5.2268 18.4225 3.33325 20.0007 3.33325C21.5788 3.33325 22.6343 5.22679 24.7453 9.01387L25.2915 9.99363C25.8915 11.0698 26.1913 11.6079 26.6592 11.9629C27.1268 12.318 27.7092 12.4498 28.8742 12.7133L29.9348 12.9533C34.0342 13.8809 36.084 14.3446 36.5717 15.9128C37.0593 17.4809 35.662 19.1151 32.8672 22.3831L32.1442 23.2286C31.35 24.1573 30.9528 24.6216 30.7742 25.1961C30.5957 25.7706 30.6557 26.3901 30.7757 27.6293L30.885 28.7573C31.3075 33.1176 31.5188 35.2978 30.2422 36.2669C28.9653 37.2361 27.0462 36.3524 23.2078 34.5852L22.2148 34.1279C21.1242 33.6258 20.5788 33.3746 20.0007 33.3746C19.4225 33.3746 18.8772 33.6258 17.7865 34.1279L16.7935 34.5852C12.9551 36.3524 11.036 37.2361 9.75924 36.2669C8.48252 35.2978 8.69379 33.1176 9.11632 28.7573L9.22562 27.6293C9.3457 26.3901 9.40574 25.7706 9.22709 25.1961C9.04845 24.6216 8.65137 24.1573 7.85719 23.2286L7.13415 22.3831C4.3394 19.1151 2.94202 17.4809 3.42969 15.9128C3.91735 14.3446 5.96709 13.8809 10.0666 12.9533L11.1271 12.7133C12.2921 12.4498 12.8745 12.318 13.3422 11.9629C13.8099 11.6079 14.1099 11.0698 14.7098 9.99363L15.2559 9.01389Z" fill="#D9D9D9"/>
</svg>
