<svg width="20" height="20" viewBox="0 0 20 20" fill="none" xmlns="http://www.w3.org/2000/svg">
<path d="M7.62747 4.50706C8.68301 2.61352 9.21076 1.66675 9.99984 1.66675C10.7889 1.66675 11.3167 2.61351 12.3722 4.50706L12.6453 4.99694C12.9453 5.53502 13.0952 5.80407 13.3291 5.98159C13.5629 6.15911 13.8541 6.225 14.4366 6.35679L14.9669 6.47677C17.0166 6.94055 18.0415 7.17243 18.2853 7.95652C18.5292 8.74058 17.8305 9.55766 16.4331 11.1917L16.0716 11.6144C15.6745 12.0787 15.4759 12.3109 15.3866 12.5982C15.2973 12.8854 15.3273 13.1952 15.3873 13.8147L15.442 14.3787C15.6533 16.5589 15.7589 17.649 15.1206 18.1336C14.4822 18.6182 13.5226 18.1763 11.6034 17.2927L11.1069 17.0641C10.5616 16.813 10.2889 16.6874 9.99984 16.6874C9.71076 16.6874 9.43809 16.813 8.89276 17.0641L8.39626 17.2927C6.47707 18.1763 5.51749 18.6182 4.87913 18.1336C4.24077 17.649 4.34641 16.5589 4.55767 14.3787L4.61232 13.8147C4.67236 13.1952 4.70238 12.8854 4.61306 12.5982C4.52374 12.3109 4.3252 12.0787 3.92811 11.6144L3.56659 11.1917C2.16921 9.55766 1.47052 8.74058 1.71436 7.95652C1.95819 7.17243 2.98306 6.94055 5.03279 6.47677L5.56308 6.35679C6.14555 6.225 6.43678 6.15911 6.67062 5.98159C6.90446 5.80407 7.05445 5.53503 7.3544 4.99694L7.62747 4.50706Z" fill="#4397AA"/>
<mask id="mask0_34_67" style="mask-type:alpha" maskUnits="userSpaceOnUse" x="1" y="1" width="18" height="18">
<path d="M7.62747 4.50706C8.68301 2.61352 9.21076 1.66675 9.99984 1.66675C10.7889 1.66675 11.3167 2.61351 12.3722 4.50706L12.6453 4.99694C12.9453 5.53502 13.0952 5.80407 13.3291 5.98159C13.5629 6.15911 13.8541 6.225 14.4366 6.35679L14.9669 6.47677C17.0166 6.94055 18.0415 7.17243 18.2853 7.95652C18.5292 8.74058 17.8305 9.55766 16.4331 11.1917L16.0716 11.6144C15.6745 12.0787 15.4759 12.3109 15.3866 12.5982C15.2973 12.8854 15.3273 13.1952 15.3873 13.8147L15.442 14.3787C15.6533 16.5589 15.7589 17.649 15.1206 18.1336C14.4822 18.6182 13.5226 18.1763 11.6034 17.2927L11.1069 17.0641C10.5616 16.813 10.2889 16.6874 9.99984 16.6874C9.71076 16.6874 9.43809 16.813 8.89276 17.0641L8.39626 17.2927C6.47707 18.1763 5.51749 18.6182 4.87913 18.1336C4.24077 17.649 4.34641 16.5589 4.55767 14.3787L4.61232 13.8147C4.67236 13.1952 4.70238 12.8854 4.61306 12.5982C4.52374 12.3109 4.3252 12.0787 3.92811 11.6144L3.56659 11.1917C2.16921 9.55766 1.47052 8.74058 1.71436 7.95652C1.95819 7.17243 2.98305 6.94055 5.03279 6.47677L5.56308 6.35679C6.14555 6.225 6.43678 6.15911 6.67062 5.98159C6.90446 5.80407 7.05445 5.53503 7.3544 4.99694L7.62747 4.50706Z" fill="#4397AA"/>
</mask>
<g mask="url(#mask0_34_67)">
<rect x="11" y="1" width="8" height="18" fill="#D9D9D9"/>
</g>
</svg>
